<svg id="visual" viewBox="0 0 960 540" width="960" height="540" xmlns="http://www.w3.org/2000/svg" xmlns:xlink="http://www.w3.org/1999/xlink" version="1.1"><rect x="0" y="0" width="960" height="540" fill="#38A5AC"></rect><path d="M519 540L553.8 527.2C588.7 514.3 658.3 488.7 681 463C703.7 437.3 679.3 411.7 679.7 386C680 360.3 705 334.7 696.2 308.8C687.3 283 644.7 257 634.7 231.2C624.7 205.3 647.3 179.7 668 154C688.7 128.3 707.3 102.7 694.2 77C681 51.3 636 25.7 613.5 12.8L591 0L960 0L960 12.8C960 25.7 960 51.3 960 77C960 102.7 960 128.3 960 154C960 179.7 960 205.3 960 231.2C960 257 960 283 960 308.8C960 334.7 960 360.3 960 386C960 411.7 960 437.3 960 463C960 488.7 960 514.3 960 527.2L960 540Z" fill="#DEA633" stroke-linecap="round" stroke-linejoin="miter"></path></svg>