<svg id="visual" viewBox="0 0 960 540" width="960" height="540" xmlns="http://www.w3.org/2000/svg" xmlns:xlink="http://www.w3.org/1999/xlink" version="1.1"><rect x="0" y="0" width="960" height="540" fill="#76CCFF"></rect><path d="M684 540L681.3 527.2C678.7 514.3 673.3 488.7 660 463C646.7 437.3 625.3 411.7 632.5 386C639.7 360.3 675.3 334.7 694.3 308.8C713.3 283 715.7 257 688.3 231.2C661 205.3 604 179.7 604.5 154C605 128.3 663 102.7 674.5 77C686 51.3 651 25.7 633.5 12.8L616 0L960 0L960 12.8C960 25.7 960 51.3 960 77C960 102.7 960 128.3 960 154C960 179.7 960 205.3 960 231.2C960 257 960 283 960 308.8C960 334.7 960 360.3 960 386C960 411.7 960 437.3 960 463C960 488.7 960 514.3 960 527.2L960 540Z" fill="#FFE632" stroke-linecap="round" stroke-linejoin="miter"></path></svg>