<svg id="visual" viewBox="0 0 960 540" width="960" height="540" xmlns="http://www.w3.org/2000/svg" xmlns:xlink="http://www.w3.org/1999/xlink" version="1.1"><rect x="0" y="0" width="960" height="540" fill="#3cb4fc"></rect><path d="M536 540L560.7 527.2C585.3 514.3 634.7 488.7 649.5 463C664.3 437.3 644.7 411.7 621.3 386C598 360.3 571 334.7 598.5 308.8C626 283 708 257 708.7 231.2C709.3 205.3 628.7 179.7 621.8 154C615 128.3 682 102.7 695.3 77C708.7 51.3 668.3 25.7 648.2 12.8L628 0L960 0L960 12.8C960 25.7 960 51.3 960 77C960 102.7 960 128.3 960 154C960 179.7 960 205.3 960 231.2C960 257 960 283 960 308.8C960 334.7 960 360.3 960 386C960 411.7 960 437.3 960 463C960 488.7 960 514.3 960 527.2L960 540Z" fill="#fbbc05" stroke-linecap="round" stroke-linejoin="miter"></path></svg>